<?xml version="1.0" encoding="UTF-8"?>
<svg xmlns="http://www.w3.org/2000/svg" xmlns:xlink="http://www.w3.org/1999/xlink" width="178px" height="31px" viewBox="0 0 178 31" version="1.1">
<g id="surface1">
<path style=" stroke:none;fill-rule:nonzero;fill:rgb(0%,0%,0%);fill-opacity:1;" d="M 58.472656 7.59375 C 60.964844 7.84375 64.347656 8.324219 65.859375 8.648438 C 68.085938 9.128906 69.597656 9.285156 73.335938 9.441406 C 75.917969 9.53125 78.765625 9.71875 79.65625 9.828125 C 81.078125 9.996094 80.546875 10.011719 76.71875 9.875 C 74.226562 9.78125 71.910156 9.75 71.554688 9.796875 C 71.289062 9.859375 73.335938 10.585938 76.183594 11.4375 L 81.257812 13.003906 L 89.535156 13.253906 C 94.074219 13.40625 98.523438 13.609375 99.414062 13.734375 C 100.835938 13.917969 100.035156 13.933594 93.449219 13.949219 C 86.507812 13.964844 86.0625 13.980469 87.664062 14.199219 C 93.09375 14.925781 115.878906 16.398438 114.277344 15.917969 C 113.921875 15.808594 110.269531 14.941406 106.089844 13.964844 C 91.226562 10.460938 75.828125 8.105469 63.546875 7.441406 C 54.824219 6.976562 52.867188 7.035156 58.472656 7.59375 Z M 58.472656 7.59375 "/>
<path style=" stroke:none;fill-rule:nonzero;fill:rgb(0%,0%,0%);fill-opacity:1;" d="M 92.648438 10.632812 C 102.972656 12.539062 111.429688 14.398438 118.015625 16.226562 C 123.355469 17.714844 124.601562 17.996094 124.601562 17.699219 C 124.601562 17.40625 114.722656 14.910156 106.890625 13.222656 C 102.972656 12.382812 96.296875 11.113281 92.027344 10.386719 L 84.195312 9.066406 Z M 92.648438 10.632812 "/>
<path style=" stroke:none;fill-rule:nonzero;fill:rgb(0%,0%,0%);fill-opacity:1;" d="M 142.933594 19.609375 C 142.132812 19.746094 141.066406 19.996094 140.621094 20.164062 C 139.464844 20.523438 136.613281 20.570312 137.414062 20.226562 C 137.683594 20.101562 137.59375 19.996094 137.148438 19.996094 C 136.703125 19.996094 135.902344 20.101562 135.28125 20.226562 C 134.65625 20.351562 133.410156 20.460938 132.519531 20.460938 C 131.632812 20.460938 130.652344 20.523438 130.386719 20.613281 C 130.117188 20.691406 130.472656 20.769531 131.1875 20.769531 C 132.964844 20.769531 132.964844 20.769531 130.386719 21.558594 C 129.140625 21.933594 128.160156 22.398438 128.160156 22.582031 C 128.160156 22.878906 128.605469 22.941406 131.097656 22.941406 C 133.410156 22.941406 134.65625 22.800781 137.683594 22.210938 L 141.511719 21.46875 L 140.175781 22.039062 C 139.464844 22.367188 138.839844 22.691406 138.839844 22.769531 C 138.839844 23.015625 149.253906 22.957031 150.5 22.691406 C 151.835938 22.414062 150.765625 22.195312 149.34375 22.445312 C 148.71875 22.550781 147.738281 22.628906 147.117188 22.628906 C 146.226562 22.628906 146.582031 22.414062 148.273438 21.933594 C 149.519531 21.546875 150.410156 21.171875 150.054688 21.125 C 149.429688 21.003906 146.851562 21.375 146.851562 21.605469 C 146.851562 21.886719 142.667969 22.722656 141.867188 22.582031 C 141.511719 22.523438 141.867188 22.226562 142.667969 21.933594 C 143.46875 21.621094 144.179688 21.3125 144.179688 21.234375 C 144.179688 20.972656 141.867188 21.066406 140.175781 21.390625 C 137.238281 21.964844 137.773438 21.589844 141.511719 20.539062 C 145.160156 19.5 145.691406 19.128906 142.933594 19.609375 Z M 137.949219 20.847656 C 137.949219 20.894531 136.972656 21.28125 135.726562 21.714844 C 133.589844 22.429688 131.453125 22.785156 130.296875 22.582031 C 129.851562 22.507812 132.964844 21.328125 134.566406 20.957031 C 135.457031 20.769531 137.949219 20.691406 137.949219 20.847656 Z M 137.949219 20.847656 "/>
<path style=" stroke:none;fill-rule:nonzero;fill:rgb(0%,0%,0%);fill-opacity:1;" d="M 42.453125 20.179688 C 41.296875 20.554688 39.339844 21.15625 38.269531 21.546875 C 35.777344 22.398438 34.175781 22.613281 30.527344 22.628906 C 27.054688 22.628906 26.789062 22.398438 29.460938 21.792969 C 31.238281 21.40625 34.621094 21.203125 33.285156 21.558594 C 32.929688 21.667969 33.195312 21.714844 33.910156 21.667969 C 34.621094 21.621094 35.332031 21.46875 35.511719 21.3125 C 35.777344 21.078125 35.332031 21.050781 32.839844 21.140625 C 29.015625 21.265625 25.632812 21.917969 25.988281 22.460938 C 26.253906 22.832031 26.523438 22.863281 31.148438 22.878906 C 35.867188 22.894531 36.222656 22.863281 39.871094 22.179688 C 43.34375 21.53125 43.609375 21.515625 42.273438 21.964844 C 40.050781 22.800781 40.40625 22.925781 45.210938 22.910156 C 47.527344 22.910156 50.105469 22.847656 50.90625 22.769531 C 51.796875 22.675781 52.597656 22.691406 52.953125 22.785156 C 53.578125 22.972656 58.738281 23.003906 58.738281 22.816406 C 58.738281 22.628906 65.058594 21.359375 65.59375 21.453125 C 65.769531 21.484375 65.148438 21.808594 64.078125 22.164062 C 63.011719 22.523438 62.390625 22.847656 62.65625 22.894531 C 62.921875 22.941406 65.148438 22.597656 67.640625 22.148438 C 72 21.359375 72.089844 21.34375 70.308594 21.902344 C 68.175781 22.550781 68.441406 22.941406 71.109375 22.941406 C 72.980469 22.941406 76.09375 22.492188 75.203125 22.351562 C 74.9375 22.304688 74.226562 22.351562 73.691406 22.445312 C 73.070312 22.550781 72.089844 22.628906 71.378906 22.628906 C 70.488281 22.628906 70.753906 22.445312 72.445312 21.949219 C 73.691406 21.558594 74.761719 21.21875 74.761719 21.171875 C 74.761719 20.988281 71.378906 21.09375 70.308594 21.3125 C 68.976562 21.589844 67.550781 21.621094 67.90625 21.359375 C 67.996094 21.265625 66.75 21.171875 64.882812 21.140625 C 61.855469 21.09375 61.5 21.140625 59.273438 21.871094 C 56.691406 22.691406 53.578125 22.972656 55.179688 22.226562 C 55.714844 22.011719 56.515625 21.699219 56.960938 21.53125 C 57.851562 21.265625 57.582031 21.234375 55.003906 21.234375 C 51.351562 21.234375 48.503906 21.558594 46.726562 22.179688 C 45.925781 22.429688 44.765625 22.628906 44.054688 22.628906 C 42.898438 22.628906 42.988281 22.523438 44.5 22.011719 C 45.480469 21.683594 46.28125 21.328125 46.28125 21.234375 C 46.28125 20.972656 44.320312 21.066406 42.007812 21.421875 C 39.070312 21.886719 39.78125 21.546875 44.054688 20.382812 C 46.101562 19.808594 46.726562 19.53125 45.925781 19.53125 C 45.210938 19.53125 43.699219 19.824219 42.453125 20.179688 Z M 53.398438 21.855469 C 51.265625 22.382812 48.058594 22.753906 48.058594 22.476562 C 48.058594 22.242188 52.953125 21.390625 54.289062 21.390625 C 54.824219 21.390625 54.46875 21.589844 53.398438 21.855469 Z M 53.398438 21.855469 "/>
<path style=" stroke:none;fill-rule:nonzero;fill:rgb(0%,0%,0%);fill-opacity:1;" d="M 92.382812 20.351562 C 90.78125 20.816406 89 21.15625 88.464844 21.125 C 87.933594 21.09375 86.152344 21.234375 84.460938 21.4375 C 78.410156 22.148438 77.695312 23.359375 83.660156 22.753906 C 85.707031 22.550781 86.328125 22.535156 86.328125 22.691406 C 86.328125 22.847656 88.554688 22.894531 95.941406 22.910156 L 105.644531 22.910156 L 109.46875 22.132812 C 111.515625 21.714844 113.386719 21.40625 113.652344 21.453125 C 113.921875 21.5 113.03125 21.855469 111.785156 22.242188 C 110.449219 22.628906 109.824219 22.941406 110.269531 22.941406 C 110.714844 22.941406 113.207031 22.566406 115.699219 22.117188 C 119.703125 21.40625 120.0625 21.375 118.460938 21.855469 C 115.96875 22.582031 116.054688 22.941406 118.636719 22.941406 C 120.683594 22.941406 122.820312 22.675781 122.820312 22.445312 C 122.820312 22.367188 122.019531 22.398438 121.039062 22.507812 C 118.28125 22.816406 118.101562 22.550781 120.507812 21.871094 C 121.753906 21.53125 122.820312 21.203125 122.820312 21.15625 C 122.820312 20.988281 119.527344 21.09375 117.65625 21.328125 C 115.878906 21.546875 115.699219 21.546875 115.699219 21.328125 C 115.699219 21.019531 114.808594 21.019531 112.316406 21.3125 C 110.539062 21.53125 110.449219 21.53125 110.894531 21.3125 C 111.960938 20.832031 109.558594 21.09375 107.691406 21.667969 C 105.644531 22.289062 101.191406 22.878906 99.679688 22.707031 C 98.167969 22.550781 98.699219 22.382812 101.28125 22.164062 C 103.507812 21.996094 103.507812 21.964844 101.992188 21.871094 C 100.570312 21.777344 100.480469 21.730469 101.550781 21.605469 C 102.261719 21.546875 103.328125 21.46875 104.039062 21.46875 C 106 21.46875 106.265625 21.078125 104.308594 21.078125 C 101.90625 21.078125 97.722656 21.683594 98.257812 21.949219 C 98.789062 22.164062 94.695312 22.738281 93.804688 22.582031 C 93.539062 22.535156 94.160156 22.210938 95.320312 21.871094 C 96.386719 21.515625 97.097656 21.1875 96.742188 21.140625 C 95.941406 21.003906 93.449219 21.375 93.449219 21.636719 C 93.449219 21.902344 89.265625 22.738281 88.554688 22.597656 C 87.933594 22.507812 91.3125 21.25 94.875 20.273438 C 97.1875 19.636719 97.367188 19.53125 96.210938 19.53125 C 95.765625 19.53125 94.074219 19.902344 92.382812 20.351562 Z M 85.171875 22.132812 C 83.394531 22.445312 81.878906 22.613281 81.878906 22.507812 C 81.878906 22.226562 87.132812 21.328125 87.84375 21.453125 C 88.199219 21.515625 86.953125 21.808594 85.171875 22.132812 Z M 85.171875 22.132812 "/>
<path style=" stroke:none;fill-rule:nonzero;fill:rgb(0%,0%,0%);fill-opacity:1;" d="M 97.453125 20.476562 C 97.097656 20.570312 97.011719 20.675781 97.277344 20.722656 C 97.898438 20.832031 99.679688 20.628906 99.679688 20.445312 C 99.679688 20.257812 98.167969 20.257812 97.453125 20.476562 Z M 97.453125 20.476562 "/>
<path style=" stroke:none;fill-rule:nonzero;fill:rgb(0%,0%,0%);fill-opacity:1;" d="M 150.855469 20.476562 C 150.5 20.570312 150.410156 20.675781 150.675781 20.722656 C 151.300781 20.832031 153.078125 20.628906 153.078125 20.445312 C 153.078125 20.257812 151.566406 20.257812 150.855469 20.476562 Z M 150.855469 20.476562 "/>
</g>
</svg>
