<?xml version="1.0" standalone="no"?>
<!DOCTYPE svg PUBLIC "-//W3C//DTD SVG 20010904//EN"
 "http://www.w3.org/TR/2001/REC-SVG-20010904/DTD/svg10.dtd">
<svg version="1.0" xmlns="http://www.w3.org/2000/svg"
 width="200.000000pt" height="200.000000pt" viewBox="0 0 200.000000 200.000000"
 preserveAspectRatio="xMidYMid meet">

<g transform="translate(0.000000,200.000000) scale(0.100000,-0.100000)"
fill="#000000" stroke="none">
<path d="M657 1510 c28 -16 66 -47 83 -68 25 -31 42 -41 84 -51 29 -6 61 -18
71 -25 16 -11 10 -12 -33 -3 -28 6 -54 8 -58 5 -3 -4 20 -51 52 -106 l57 -101
93 -16 c51 -10 101 -23 111 -31 16 -12 7 -13 -67 -14 -78 -1 -83 -2 -65 -16
61 -47 317 -142 299 -111 -4 7 -45 63 -92 126 -167 226 -340 378 -478 421 -98
30 -120 26 -57 -10z"/>
<path d="M1041 1314 c116 -123 211 -243 285 -361 60 -96 74 -114 74 -95 0 19
-111 180 -199 289 -44 54 -119 136 -167 183 l-88 85 95 -101z"/>
<path d="M1606 735 c-9 -9 -21 -25 -26 -36 -13 -23 -45 -26 -36 -4 3 8 2 15
-3 15 -5 0 -14 -7 -21 -15 -7 -8 -21 -15 -31 -15 -10 0 -21 -4 -24 -10 -3 -5
1 -10 9 -10 20 0 20 0 -9 -51 -14 -24 -25 -54 -25 -66 0 -19 5 -23 33 -23 26
0 40 9 74 47 l43 48 -15 -37 c-8 -21 -15 -42 -15 -47 0 -16 117 -12 131 5 15
18 3 32 -13 16 -7 -7 -18 -12 -25 -12 -10 0 -6 14 13 45 14 25 24 49 20 52 -7
8 -36 -16 -36 -31 0 -18 -47 -72 -56 -63 -4 4 0 23 9 42 9 20 17 40 17 45 0
17 -26 11 -45 -10 -33 -37 -27 -13 15 55 41 67 47 91 16 60z m-56 -80 c0 -3
-11 -28 -25 -56 -24 -46 -48 -69 -61 -56 -5 5 30 81 48 105 10 12 38 17 38 7z"/>
<path d="M477 698 c-13 -24 -35 -63 -47 -88 -28 -55 -46 -69 -87 -70 -39 0
-42 15 -12 54 20 25 58 38 43 15 -4 -7 -1 -10 7 -7 8 3 16 13 18 23 3 15 -2
17 -30 11 -43 -8 -81 -50 -77 -85 3 -24 6 -26 58 -27 53 -1 57 1 98 45 39 42
42 43 27 14 -25 -54 -21 -62 33 -61 26 0 55 4 64 9 10 6 19 5 23 -1 7 -12 65
-14 65 -2 0 12 71 94 77 88 2 -2 -5 -23 -17 -46 -12 -23 -19 -44 -16 -47 3 -3
28 19 56 48 49 51 50 52 30 16 -24 -42 -21 -67 9 -67 21 0 56 29 46 38 -3 3
-11 0 -17 -6 -7 -7 -18 -12 -26 -12 -10 0 -7 12 12 44 14 25 26 47 26 50 0 12
-38 5 -50 -9 -15 -18 -31 -20 -27 -3 1 6 -13 12 -34 14 -34 3 -38 0 -63 -47
-29 -53 -64 -71 -46 -23 6 14 15 34 20 45 10 17 7 19 -22 19 -41 0 -73 -21
-93 -61 -9 -16 -22 -29 -30 -29 -13 0 -12 7 5 40 11 21 20 44 20 50 0 17 -22
11 -48 -12 -33 -30 -25 -8 23 67 23 37 30 55 21 55 -8 0 -25 -19 -39 -42z
m123 -108 c-24 -34 -60 -58 -60 -40 0 15 55 70 70 70 6 0 2 -13 -10 -30z"/>
<path d="M1038 687 c-18 -30 -38 -52 -44 -50 -6 2 -26 -7 -45 -20 -68 -46 -76
-124 -9 -85 23 13 30 14 30 4 0 -10 25 -13 108 -14 l109 0 43 50 c23 27 44 47
47 44 3 -3 -7 -26 -21 -51 -15 -25 -22 -45 -17 -45 5 0 33 24 61 53 45 46 49
48 31 17 -28 -47 -27 -70 2 -70 23 0 47 17 47 32 0 5 -9 3 -20 -4 -31 -20 -33
-3 -6 41 14 22 26 43 26 46 0 11 -37 4 -58 -11 -20 -14 -22 -14 -22 0 0 20
-10 20 -38 1 -20 -14 -21 -14 -16 0 12 31 -15 14 -36 -23 -23 -40 -73 -78 -90
-67 -17 10 -11 21 18 35 25 11 25 13 8 19 -16 6 -17 9 -5 17 8 4 20 9 28 9 22
0 25 25 3 25 -27 0 -74 -39 -68 -56 6 -14 -40 -51 -50 -41 -3 3 4 24 17 46 12
23 20 44 16 47 -9 9 -37 -15 -37 -32 0 -17 -47 -71 -55 -62 -7 6 31 87 71 150
26 41 28 48 15 48 -5 0 -24 -24 -43 -53z m-81 -115 c-20 -20 -37 -31 -37 -24
0 18 59 76 67 68 4 -4 -10 -23 -30 -44z"/>
<path d="M1095 679 c-4 -6 -5 -13 -2 -16 7 -7 27 6 27 18 0 12 -17 12 -25 -2z"/>
<path d="M1695 679 c-4 -6 -5 -13 -2 -16 7 -7 27 6 27 18 0 12 -17 12 -25 -2z"/>
</g>
</svg>
